PathFileType	4	(X/Y/Z)	C:/Users/opensim2020/Desktop/walking_exp_matlab/subject02_walking10_straight_01.trc																																																																																																																															
DataRate	CameraRate	NumFrames	NumMarkers	Units	OrigDataRate	OrigDataStartFrame	OrigNumFrames																																																																																																																											
100	100	4	43	mm	100	531	328																																																																																																																											
Frame#	Time	LFHD			RFHD			LBHD			RBHD			C7			T10			CLAV			STRN			RBAK			LSHO			LUPA			LELB			LFRM			LWRA			LWRB			LFIN			RSHO			RUPA			RELB			RFRM			RWRA			RWRB			RFIN			LASI			RASI			LPSI			RPSI			LTHI			LKNE			LTIB			LANK			LHEE			LTOE			RTHI			RKNE			RTIB			RANK			RHEE			RTOE			*39			*40			*41			*42		
		X1	Y1	Z1	X2	Y2	Z2	X3	Y3	Z3	X4	Y4	Z4	X5	Y5	Z5	X6	Y6	Z6	X7	Y7	Z7	X8	Y8	Z8	X9	Y9	Z9	X10	Y10	Z10	X11	Y11	Z11	X12	Y12	Z12	X13	Y13	Z13	X14	Y14	Z14	X15	Y15	Z15	X16	Y16	Z16	X17	Y17	Z17	X18	Y18	Z18	X19	Y19	Z19	X20	Y20	Z20	X21	Y21	Z21	X22	Y22	Z22	X23	Y23	Z23	X24	Y24	Z24	X25	Y25	Z25	X26	Y26	Z26	X27	Y27	Z27	X28	Y28	Z28	X29	Y29	Z29	X30	Y30	Z30	X31	Y31	Z31	X32	Y32	Z32	X33	Y33	Z33	X34	Y34	Z34	X35	Y35	Z35	X36	Y36	Z36	X37	Y37	Z37	X38	Y38	Z38	X39	Y39	Z39	X40	Y40	Z40	X41	Y41	Z41	X42	Y42	Z42	X43	Y43	Z43
																																																																																																																																		
83	0.82	-867.77533	1758.77917	1441.68762	-867.09528	1733.22485	1583.89319	-981.72943	1661.70166	1426.35107	-993.08923	1632.03186	1566.11731	-1025.39978	1526.55225	1501.50989	-1079.46814	1252.68018	1510.96289	-889.91101	1459.23584	1472.13806	-838.15082	1286.04199	1475.71204	-1074.69019	1355.47363	1573.15369	-978.44275	1502.5918	1312.5686	-1014.21558	1301.71924	1232.89868	-1022.43018	1159.40552	1224.59595	-1007.16278	1026.90527	1218.21326	-942.51086	908.2052	1253.7301	-989.66083	905.37335	1223.12598	-966.02655	843.41229	1220.77966	-919.90692	1492.07019	1674.84973	-926.18573	1302.51245	1766.95117	-900.18134	1157.99976	1784.28931	-857.87701	1045.47668	1799.36572	-800.66504	923.88953	1774.27087	-841.16095	916.75592	1813.80298	-795.99292	859.84576	1812.60437	-865.94092	995.82391	1351.30786	-839.54529	975.61633	1605.31531	-1065.26477	1033.63525	1451.00781	-1057.7937	1032.12158	1565.75208	-882.9184	692.11871	1272.78125	-864.21893	496.57092	1288.75049	-948.22205	325.10022	1307.03931	-973.73029	102.72716	1331.74731	-991.46283	76.00838	1392.99243	-844.37506	44.68251	1269.40784	-923.17761	667.92896	1660.50085	-942.45227	459.24878	1610.97083	-995.07312	277.49203	1611.9165	-1025.11755	87.34412	1565.38269	-1062.51501	34.68168	1508.55737	-875.72437	32.35302	1583.73755	-980.92572	1798.80835	1532.14307	2845.24902	1034.21069	-3360.41455	NaN	NaN	NaN	NaN	NaN	NaN
84	0.83	-863.22467	1758.54297	1441.29114	-861.8692	1733.35706	1583.48999	-976.7218	1660.94751	1426.59143	-987.55774	1631.65198	1566.50452	-1019.49878	1526.12061	1502.01721	-1073.80859	1252.3855	1511.79932	-883.97498	1458.80493	1472.62659	-832.84998	1285.53564	1476.03027	-1068.91406	1355.38916	1574.07153	-973.00732	1501.94849	1313.06995	-1008.80127	1300.85205	1233.98767	-1017.24493	1158.51636	1225.79333	-1000.37848	1026.06763	1220.50842	-934.4303	907.81537	1256.5813	-981.44794	904.67657	1226.05823	-957.2583	843.32147	1223.45972	-913.84668	1492.01831	1675.19543	-918.37518	1302.34863	1767.31177	-891.01776	1158.07629	1784.6427	-847.69025	1045.83337	1799.31177	-789.67883	924.90411	1773.78699	-829.995	917.36792	1813.552	-784.29712	860.70966	1812.04956	-860.22046	995.44922	1351.42542	-833.6842	975.45111	1605.8136	-1059.49878	1033.18457	1451.53137	-1052.24158	1031.61609	1566.20789	-875.63452	692.22205	1273.98315	-855.70831	495.89484	1290.44409	-933.5755	320.9335	1307.43274	-950.5816	97.47884	1330.73584	-967.54346	70.14445	1391.84717	-818.66882	44.7876	1269.06323	-919.51654	667.55701	1660.61572	-940.16852	459.01321	1611.21619	-993.9718	277.5307	1611.82532	-1025.09399	87.65728	1565.33875	-1062.4917	34.86934	1508.36047	-875.82697	32.18031	1583.78369	-976.47717	1798.54822	1532.17712	2845.26831	1034.10864	-3360.45264	NaN	NaN	NaN	NaN	NaN	NaN
85	0.84	-858.6731	1758.17395	1440.72668	-856.72406	1733.43628	1583.14734	-971.65228	1660.10767	1426.71838	-981.97937	1631.17358	1566.74585	-1013.96759	1525.77991	1502.453	-1068.16821	1252.04883	1512.52417	-878.34363	1458.37366	1472.98157	-827.23694	1284.98389	1476.46265	-1062.97339	1355.25745	1574.98413	-967.43054	1501.30432	1313.43726	-1003.62427	1300.2489	1234.84521	-1011.59332	1157.6543	1227.11304	-993.19409	1025.02356	1222.53589	-926.70966	907.90454	1259.85193	-973.12762	904.09332	1228.72461	-948.57977	843.16724	1225.74634	-907.82446	1491.84192	1675.46985	-910.68915	1302.02979	1767.58325	-881.94977	1158.09753	1784.80371	-837.60974	1046.17969	1799.07886	-778.90662	925.59076	1773.02783	-818.81744	917.85785	1813.19727	-772.86755	861.63184	1811.27539	-854.54724	995.16748	1351.45825	-828.02911	975.09247	1606.10522	-1053.75708	1032.64868	1452.05505	-1046.66199	1031.01611	1566.60657	-868.41992	692.18744	1275.16956	-847.31604	495.07114	1292.10791	-918.8316	316.83313	1307.44812	-927.11176	92.81993	1329.48901	-944.20551	64.65318	1389.76672	-792.83801	45.27639	1268.83167	-915.80243	667.08978	1660.88953	-937.83777	458.99994	1611.45776	-992.8858	277.58173	1611.71729	-1024.91919	87.8454	1565.203	-1062.35229	34.95644	1508.18433	-875.76825	32.13649	1583.87878	-971.73303	1798.00476	1531.96375	2845.12671	1034.15918	-3360.24414	NaN	NaN	NaN	NaN	NaN	NaN
86	0.85	-853.88812	1757.80591	1440.22998	-851.51801	1733.44739	1582.75867	-966.5611	1659.27551	1426.78369	-976.41046	1630.66626	1566.92419	-1008.23505	1525.30591	1502.74695	-1062.47327	1251.63123	1513.10925	-872.63928	1457.8877	1473.22241	-821.42804	1284.52124	1477.00012	-1057.2157	1355.01477	1575.58435	-961.84808	1500.63171	1313.73926	-997.27112	1299.18762	1235.95862	-1005.40063	1156.72998	1228.44153	-986.50739	1024.52551	1224.04907	-918.92316	907.58167	1262.07959	-965.64526	903.77753	1230.70715	-940.51996	843.14154	1226.96375	-901.61108	1491.67517	1675.72412	-902.85577	1301.98669	1767.60974	-872.9494	1158.07239	1784.84937	-827.63568	1046.48389	1798.67273	-768.24994	926.57495	1772.21265	-807.72583	918.32867	1812.72083	-761.25189	862.56622	1810.38489	-848.72931	994.95947	1351.58887	-822.51379	974.68884	1606.28723	-1047.96228	1032.10718	1452.51624	-1041.09753	1030.44141	1567.00122	-861.42419	692.10162	1276.21558	-839.01691	494.23914	1293.72656	-903.95074	312.93509	1307.1261	-903.7132	88.59013	1328.1084	-920.18433	59.4408	1388.37427	-767.13763	46.25323	1268.74585	-911.93634	666.70599	1660.95203	-935.52557	458.69766	1611.41882	-991.80133	277.6666	1611.61743	-1024.62561	87.86305	1564.96753	-1062.28296	35.14877	1507.99011	-875.7627	32.10288	1584.0072	-966.87848	1797.30396	1531.59814	2845.771	1034.33997	-3357.3999	NaN	NaN	NaN	NaN	NaN	NaN
